<?xml version="1.0" standalone="no"?>
<svg viewBox="0 0 200 200" xmlns="http://www.w3.org/2000/svg">
  <mask id="mask0" mask-type="alpha">
    <path fill="#000000" d="M50.1,-63.3C60.7,-50.8,62.2,-31,62,-13.7C61.8,3.7,60,18.6,53.6,32.2C47.2,45.7,36.4,57.8,21.2,67.2C6.1,76.5,-13.3,83.1,-28.7,77.9C-44.2,72.7,-55.8,55.8,-66.6,38C-77.5,20.2,-87.7,1.5,-84.2,-14.3C-80.7,-30,-63.6,-42.7,-47.3,-54.2C-31,-65.6,-15.5,-75.8,2.1,-78.3C19.8,-80.8,39.5,-75.7,50.1,-63.3Z" transform="translate(100 100)" />
  </mask>
  <g mask="url(#mask0)">
    <path fill="#000000" d="M50.1,-63.3C60.7,-50.8,62.2,-31,62,-13.7C61.8,3.7,60,18.6,53.6,32.2C47.2,45.7,36.4,57.8,21.2,67.2C6.1,76.5,-13.3,83.1,-28.7,77.9C-44.2,72.7,-55.8,55.8,-66.6,38C-77.5,20.2,-87.7,1.5,-84.2,-14.3C-80.7,-30,-63.6,-42.7,-47.3,-54.2C-31,-65.6,-15.5,-75.8,2.1,-78.3C19.8,-80.8,39.5,-75.7,50.1,-63.3Z" transform="translate(100 100)" />
  <image xlink:href=""/>
  </g>
</svg>
